<svg xmlns="http://www.w3.org/2000/svg" width="53" height="59" fill="none"><g clip-path="url(#a)"><path fill="#346D52" d="M41.74 58.73a2.72 2.72 0 0 1-2.38 0 2.68 2.68 0 0 1-.83-.58 2.5 2.5 0 0 1-.31-.42l-4.4-7.14-3.74 4.32a7.5 7.5 0 0 1-1.1 1.05l-.05.02a5.93 5.93 0 0 1-1.67.88 3.03 3.03 0 0 1-1.48.08 3.01 3.01 0 0 1-1.09-.44 3.01 3.01 0 0 1-.44-.37 3.51 3.51 0 0 1-.37-.48l-.05-.1-.05-.1-.62-1.67v-.09l-3.3-32.92a2.15 2.15 0 0 1 0-.64 2.05 2.05 0 0 1 1.8-1.68 2.11 2.11 0 0 1 1.23.24l.15.07c6.55 4.25 12.66 8.2 18.75 12.13l9.22 5.95a5.71 5.71 0 0 1 .88.7l.03.03a3.58 3.58 0 0 1 1 1.92 3.14 3.14 0 0 1-.11 1.15 3.13 3.13 0 0 1-.79 1.3 5.07 5.07 0 0 1-1.61 1.1 6.98 6.98 0 0 1-1.46.48c-1.34.26-2.68.59-4.01.9l-1.58.37 4.37 7.18a2.66 2.66 0 0 1 .3 2.02v.05a2.63 2.63 0 0 1-.74 1.26 2.9 2.9 0 0 1-.4.32l-.97.62a40.38 40.38 0 0 1-4.18 2.49ZM18.26 9.34a1.9 1.9 0 0 1-.75 2.56 1.96 1.96 0 0 1-2.6-.64l-3.89-6.72a1.9 1.9 0 0 1 .77-2.52 1.96 1.96 0 0 1 2.58.6l3.92 6.72h-.03ZM10.98 31.8a1.96 1.96 0 0 1 2.55.76 1.9 1.9 0 0 1-.6 2.56l-6.8 3.87a1.96 1.96 0 0 1-2.55-.76 1.9 1.9 0 0 1 .6-2.56l6.8-3.87Zm-1-12.67a1.9 1.9 0 0 1 .42 3.47c-.43.26-.94.34-1.43.24l-7.51-2.02a1.9 1.9 0 0 1-.42-3.43c.41-.26.9-.36 1.39-.28l7.53 2.02h.02Zm29.81.64a1.96 1.96 0 0 1-2.54-.76 1.9 1.9 0 0 1 .6-2.56l6.8-3.87a1.96 1.96 0 0 1 2.54.76 1.9 1.9 0 0 1-.6 2.56l-6.8 3.87Zm-9-9.9a1.91 1.91 0 0 1-1.61 1.54 1.96 1.96 0 0 1-2-1 1.9 1.9 0 0 1-.12-1.52l2-7.45c.15-.46.48-.84.91-1.06a1.96 1.96 0 0 1 2.55.65c.27.4.37.9.28 1.37l-2 7.48Zm9.8 46.27 4.69-2.81c-1.64-2.7-4.3-6.5-5.59-9.2a1.14 1.14 0 0 1 .1-1.04c.16-.27.42-.45.72-.52 2.61-.59 5.28-1.14 7.87-1.79.3-.06.6-.16.88-.28.22-.1.44-.22.63-.36.07-.06.13-.12.18-.19a.43.43 0 0 0 .07-.11l-.03-.09c-.05-.1-.13-.18-.21-.25a2.8 2.8 0 0 0-.4-.3L22.84 21.96c1.02 10.25 2.52 21.17 3.13 31.35.01.17.04.33.09.48l.12.3.07.07h.14l.24-.08c.23-.1.44-.23.62-.38.24-.2.46-.4.66-.64.94-1.09 4.66-5.83 5.53-6.33a1.18 1.18 0 0 1 1.6.4l5.55 9Z"/></g><defs><clipPath id="a"><path fill="#fff" d="M0 0h53v59H0z"/></clipPath></defs></svg>