<svg xmlns="http://www.w3.org/2000/svg" width="28" height="28" fill="none"><path fill="#F6EEE5" d="M14 25.67c-1.6 0-3.1-.31-4.52-.92a11.83 11.83 0 0 1-6.23-6.23A11.29 11.29 0 0 1 2.33 14c0-1.61.31-3.13.92-4.54a11.88 11.88 0 0 1 6.23-6.2c1.42-.62 2.93-.93 4.52-.93 1.61 0 3.13.31 4.54.92a11.88 11.88 0 0 1 6.2 6.21c.62 1.41.93 2.93.93 4.54 0 1.6-.3 3.1-.92 4.52a11.83 11.83 0 0 1-6.21 6.23c-1.41.61-2.93.92-4.54.92Zm0-2.4a14.82 14.82 0 0 0 2.22-4.6h-4.44a13.8 13.8 0 0 0 2.22 4.6Zm-3.03-.46a16.16 16.16 0 0 1-1.58-4.14H5.95a9.68 9.68 0 0 0 2.11 2.53 8.4 8.4 0 0 0 2.9 1.6Zm6.06 0a8.4 8.4 0 0 0 2.9-1.6 9.68 9.68 0 0 0 2.12-2.54h-3.44a17.13 17.13 0 0 1-1.58 4.14ZM4.96 16.33h3.97a16.08 16.08 0 0 1 0-4.66H4.96a9.98 9.98 0 0 0-.22 3.51c.05.38.12.76.22 1.15Zm6.3 0h5.48a16.06 16.06 0 0 0 0-4.66h-5.48a16.12 16.12 0 0 0 0 4.66Zm7.82 0h3.96a9.96 9.96 0 0 0 .22-3.51 9.97 9.97 0 0 0-.22-1.15h-3.96a16.12 16.12 0 0 1 0 4.66Zm-.47-7h3.44a9.68 9.68 0 0 0-2.11-2.53 8.4 8.4 0 0 0-2.9-1.6 16.17 16.17 0 0 1 1.57 4.13Zm-6.83 0h4.44A13.81 13.81 0 0 0 14 4.73a14.8 14.8 0 0 0-2.22 4.6Zm-5.83 0h3.44a17.13 17.13 0 0 1 1.58-4.14 8.4 8.4 0 0 0-2.9 1.6 9.68 9.68 0 0 0-2.12 2.54Z"/></svg>