<svg xmlns="http://www.w3.org/2000/svg" width="16" height="22" fill="none"><path fill="#D2AC71" d="M8 21.833c-.253 0-.47-.072-.65-.216a1.317 1.317 0 0 1-.406-.57 15.073 15.073 0 0 0-1.3-2.843c-.506-.885-1.219-1.923-2.14-3.114-.92-1.192-1.67-2.33-2.248-3.413-.56-1.083-.84-2.392-.84-3.927 0-2.113.732-3.9 2.195-5.363C4.09.907 5.888.167 8 .167c2.112 0 3.9.74 5.362 2.22 1.48 1.463 2.22 3.25 2.22 5.363 0 1.643-.316 3.015-.947 4.117a28.46 28.46 0 0 1-2.14 3.223c-.975 1.3-1.715 2.383-2.22 3.25a15.297 15.297 0 0 0-1.22 2.708c-.09.253-.234.451-.433.596a1.06 1.06 0 0 1-.623.19Zm0-3.873c.307-.614.65-1.218 1.03-1.814.396-.596.974-1.39 1.733-2.384.776-1.01 1.408-1.94 1.895-2.79.506-.866.759-1.94.759-3.222 0-1.499-.533-2.772-1.598-3.819C10.772 2.866 9.499 2.333 8 2.333s-2.78.533-3.846 1.598c-1.047 1.047-1.57 2.32-1.57 3.819 0 1.282.243 2.356.73 3.223a29.168 29.168 0 0 0 1.924 2.79c.758.992 1.327 1.787 1.706 2.383.397.596.75 1.2 1.056 1.814Zm0-7.502c.758 0 1.4-.261 1.923-.785.524-.524.785-1.165.785-1.923s-.261-1.4-.785-1.923C9.399 5.303 8.758 5.042 8 5.042s-1.4.261-1.923.785c-.523.524-.785 1.165-.785 1.923s.262 1.4.785 1.923c.524.524 1.165.785 1.923.785Z"/></svg>