<svg xmlns="http://www.w3.org/2000/svg" width="62" height="50" fill="none"><g clip-path="url(#a)"><path fill="#346D52" d="M9.7 0h42.6c2.66 0 5.07 1.1 6.83 2.85A9.64 9.64 0 0 1 62 9.67v30.66a9.62 9.62 0 0 1-2.88 6.8A9.69 9.69 0 0 1 52.31 50H9.69a9.7 9.7 0 0 1-6.83-2.85A9.6 9.6 0 0 1 0 40.33V9.67A9.68 9.68 0 0 1 9.7 0Zm9.57 16.35 3.56 12.2h.14l3.56-12.2h5.33l-5.73 17.3h-6.45l-5.74-17.3h5.33Zm14.26 17.3v-17.3h7.5c1.3 0 2.42.23 3.4.7a5.29 5.29 0 0 1 2.25 2.02c.54.88.8 1.93.8 3.16 0 1.24-.27 2.28-.82 3.13a5.15 5.15 0 0 1-2.32 1.93c-1 .43-2.15.65-3.48.65h-4.48V24.3h3.54c.55 0 1.02-.07 1.41-.2.4-.14.7-.37.91-.67.22-.3.32-.7.32-1.2 0-.49-.1-.9-.32-1.2a1.83 1.83 0 0 0-.9-.7 3.95 3.95 0 0 0-1.42-.22h-1.67v13.55h-4.72Zm10.19-7.94 4.34 7.94h-5.13l-4.24-7.94h5.03Zm8.59-21.7H9.69A5.7 5.7 0 0 0 4 9.68v30.66a5.71 5.71 0 0 0 5.7 5.65h42.62a5.7 5.7 0 0 0 4-1.68 5.62 5.62 0 0 0 1.7-3.97V9.67c0-1.53-.65-2.95-1.69-3.98a5.69 5.69 0 0 0-4.01-1.67Z"/></g><defs><clipPath id="a"><path fill="#fff" d="M0 0h62v50H0z"/></clipPath></defs></svg>